<svg xmlns="http://www.w3.org/2000/svg" width="9" height="23" viewBox="0 0 9 23">
    <g fill="none" fill-rule="evenodd">
        <path fill="#C4921B" d="M1.534 23.872h5.518l-2.759-2.758z"/>
        <path fill="#4E4C4A" d="M7.59 7.932A2.651 2.651 0 0 0 4.961 5.69H3.44A2.65 2.65 0 0 0 .81 7.932L0 13.002l1.372.785.579 7.23.884-.883-.554-6.924-1.237-.708.706-4.42a1.702 1.702 0 0 1 1.689-1.44H4.96c.845 0 1.556.606 1.69 1.44l.705 4.42-1.237.708-.555 6.944.884.884.58-7.251 1.372-.786-.81-5.069zM4.2.952c.627 0 1.136.51 1.136 1.136 0 .711-.587 1.722-1.136 1.722-.549 0-1.136-1.01-1.136-1.722 0-.627.51-1.136 1.136-1.136m0 3.81c-1.255 0-2.088-1.61-2.088-2.674A2.09 2.09 0 0 1 4.2 0a2.09 2.09 0 0 1 2.088 2.088c0 1.064-.833 2.674-2.088 2.674zm.023 9.408c.263 0 .475.213.475.476v4.642l-.508-.508-.443.443v-4.577c0-.263.212-.476.476-.476z"/>
    </g>
</svg>
