<svg xmlns="http://www.w3.org/2000/svg" width="8" height="22" viewBox="0 0 8 22">
    <g fill="none" fill-rule="evenodd">
        <path fill="#C4921B" d="M1.1 0l2.75 3.3L6.6 0z"/>
        <path fill="#4E4C4A" d="M3.85 5.622c.597 0 1.083.438 1.083.976 0 .54-.486.977-1.083.977s-1.083-.437-1.083-.977c0-.538.486-.976 1.083-.976m0 2.93c-1.195 0-2.166-.875-2.166-1.954 0-1.077.971-1.954 2.166-1.954 1.195 0 2.167.877 2.167 1.954 0 1.079-.972 1.955-2.167 1.955zm2.968 2.796l.882 4.068-1.063.188-.882-4.07c-.123-.568-.847-.998-1.684-.998h-.442c-.837 0-1.56.43-1.684.999l-.882 4.07L0 15.415l.882-4.068c.224-1.037 1.38-1.789 2.747-1.789h.442c1.368 0 2.523.752 2.747 1.789zm-1.304 4.055c.297.03.51.272.476.54l-.62 4.907c-.031.247-.262.434-.538.434H2.868c-.276 0-.507-.187-.538-.434l-.62-4.906c-.034-.269.179-.51.477-.541.296-.035.565.162.599.43l.565 4.473h.998l.565-4.473c.034-.268.296-.466.6-.43z"/>
    </g>
</svg>
