<svg xmlns="http://www.w3.org/2000/svg" width="12" height="16" viewBox="0 0 12 16">
    <g fill="none" fill-rule="evenodd">
        <path fill="#C4921B" d="M5.714 11.92l2.98-2.981h-5.96z"/>
        <path fill="#4E4C4A" d="M10.875 3.51l-.042-.037c-.17-.164-.441-.254-.765-.254-.302.015-.758.146-1.22.684-.55.642-1.415 1.204-1.85 1.204H4.43c-.435 0-1.3-.562-1.85-1.204-.462-.538-.92-.67-1.223-.684-.3-.014-.577.076-.758.25l-.045.04c-.163.144-.545.482-.554.983-.005.319.14.62.43.897.516.49 1.413 1.381 1.751 1.717.08.08.13.129.164.16.066.085.328.359 1.002.447v.625h.904V6.836h-.452c-.596 0-.776-.165-.778-.167a150.674 150.674 0 0 0-1.969-1.936c-.14-.131-.149-.206-.148-.226.001-.102.182-.262.251-.324l.044-.04a.4.4 0 0 1 .117-.021c.124.006.325.074.578.369.647.756 1.727 1.52 2.536 1.52h2.568c.81 0 1.889-.764 2.537-1.52.252-.294.454-.363.579-.37a.27.27 0 0 1 .107.015l.055.05c.068.06.247.22.248.32 0 .02-.009.096-.148.227A139.14 139.14 0 0 0 8.4 6.678c-.008.006-.202.158-.77.158h-.453v1.502h.905v-.625c.602-.078.884-.301.96-.408l.004.003c.013-.013 1.3-1.3 1.952-1.92.29-.276.435-.577.43-.896-.009-.501-.39-.838-.553-.982m-6.566 9.165l1.009 1.206c.22.262.325.595.294.935a1.279 1.279 0 0 1-2.26.71l-1.64-1.958a1.283 1.283 0 0 1-.067-1.56l1.07-1.527a.836.836 0 0 1 .06-.07l.166-.194.591.711-.03.044-1.1 1.567a.357.357 0 0 0 .018.435l1.64 1.96a.359.359 0 0 0 .245.121c.095.002.19-.02.258-.077a.355.355 0 0 0 .046-.504l-1.464-1.748.03-.044.831-1.184.612.737-.309.44zm4.404-2.193l1.07 1.526a1.284 1.284 0 0 1-.067 1.56l-1.64 1.959a1.285 1.285 0 0 1-1.809.16 1.273 1.273 0 0 1-.45-.872 1.27 1.27 0 0 1 .294-.935l1.008-1.205-.309-.44.613-.737.86 1.228-1.464 1.748a.357.357 0 0 0 .045.504.37.37 0 0 0 .504-.045l1.64-1.959a.358.358 0 0 0 .018-.435l-1.13-1.61.591-.712.168.195c.019.02.04.044.058.07zM4.191 2.388c0-.84.683-1.523 1.523-1.523.84 0 1.524.684 1.524 1.523 0 .84-.684 1.524-1.524 1.524S4.19 3.228 4.19 2.388m1.523 2.389a2.391 2.391 0 0 0 2.388-2.389A2.391 2.391 0 0 0 5.714 0a2.391 2.391 0 0 0-2.388 2.388 2.391 2.391 0 0 0 2.388 2.389"/>
    </g>
</svg>
